<mxfile host="65bd71144e">
    <diagram id="lha6BOxes31PVcL4c5HS" name="Page-1">
        <mxGraphModel dx="970" dy="486" grid="1" gridSize="10" guides="1" tooltips="1" connect="1" arrows="1" fold="1" page="1" pageScale="1" pageWidth="850" pageHeight="1100" background="none" math="0" shadow="1">
            <root>
                <mxCell id="0"/>
                <mxCell id="1" parent="0"/>
                <mxCell id="YaQVXfG08iiR8vsxrhCa-10" style="edgeStyle=none;html=1;entryX=0.5;entryY=0;entryDx=0;entryDy=0;shape=flexArrow;" edge="1" parent="1" source="K4Ywv5vfKXUfV5wcP8WH-5" target="YaQVXfG08iiR8vsxrhCa-8">
                    <mxGeometry relative="1" as="geometry">
                        <mxPoint x="470" y="515" as="targetPoint"/>
                        <Array as="points">
                            <mxPoint x="470" y="531"/>
                        </Array>
                    </mxGeometry>
                </mxCell>
                <mxCell id="K4Ywv5vfKXUfV5wcP8WH-5" value="" style="whiteSpace=wrap;html=1;aspect=fixed;" parent="1" vertex="1">
                    <mxGeometry x="170" y="450" width="160" height="160" as="geometry"/>
                </mxCell>
                <mxCell id="K4Ywv5vfKXUfV5wcP8WH-6" value="Nginx" style="whiteSpace=wrap;html=1;aspect=fixed;fontSize=10;shadow=0;sketch=0;glass=0;rounded=1;strokeColor=#00FF00;" parent="1" vertex="1">
                    <mxGeometry x="180" y="460" width="55" height="55" as="geometry"/>
                </mxCell>
                <mxCell id="K4Ywv5vfKXUfV5wcP8WH-13" value="driver&lt;br&gt;fluentd" style="whiteSpace=wrap;html=1;aspect=fixed;fontSize=10;rounded=1;sketch=1;fillStyle=auto;fillColor=#FF0080;" parent="1" vertex="1">
                    <mxGeometry x="260" y="540" width="55" height="55" as="geometry"/>
                </mxCell>
                <mxCell id="K4Ywv5vfKXUfV5wcP8WH-30" style="edgeStyle=none;shape=flexArrow;html=1;entryX=1;entryY=0.5;entryDx=0;entryDy=0;fontSize=10;entryPerimeter=0;" parent="1" source="K4Ywv5vfKXUfV5wcP8WH-28" target="YaQVXfG08iiR8vsxrhCa-12" edge="1">
                    <mxGeometry relative="1" as="geometry">
                        <mxPoint x="710" y="640" as="targetPoint"/>
                    </mxGeometry>
                </mxCell>
                <mxCell id="K4Ywv5vfKXUfV5wcP8WH-28" value="Kibana" style="whiteSpace=wrap;html=1;aspect=fixed;fontSize=10;rounded=1;strokeColor=#00FF00;" parent="1" vertex="1">
                    <mxGeometry x="810" y="600" width="100" height="100" as="geometry"/>
                </mxCell>
                <mxCell id="YaQVXfG08iiR8vsxrhCa-3" value="Docker engine" style="text;html=1;strokeColor=none;fillColor=none;align=center;verticalAlign=middle;whiteSpace=wrap;rounded=0;shadow=0;glass=0;sketch=1;" vertex="1" parent="1">
                    <mxGeometry x="175" y="580" width="40" height="20" as="geometry"/>
                </mxCell>
                <mxCell id="YaQVXfG08iiR8vsxrhCa-9" style="edgeStyle=none;html=1;entryX=0.5;entryY=1;entryDx=0;entryDy=0;shape=flexArrow;" edge="1" parent="1" source="YaQVXfG08iiR8vsxrhCa-4" target="YaQVXfG08iiR8vsxrhCa-8">
                    <mxGeometry relative="1" as="geometry">
                        <mxPoint x="480" y="825" as="targetPoint"/>
                        <Array as="points">
                            <mxPoint x="470" y="770"/>
                        </Array>
                    </mxGeometry>
                </mxCell>
                <mxCell id="YaQVXfG08iiR8vsxrhCa-4" value="" style="whiteSpace=wrap;html=1;aspect=fixed;" vertex="1" parent="1">
                    <mxGeometry x="170" y="690" width="160" height="160" as="geometry"/>
                </mxCell>
                <mxCell id="YaQVXfG08iiR8vsxrhCa-5" value="Microservice" style="whiteSpace=wrap;html=1;aspect=fixed;fontSize=10;shadow=0;sketch=0;glass=0;rounded=1;strokeColor=#00FF00;" vertex="1" parent="1">
                    <mxGeometry x="180" y="700" width="63.75" height="63.75" as="geometry"/>
                </mxCell>
                <mxCell id="YaQVXfG08iiR8vsxrhCa-6" value="driver&lt;br&gt;fluentd" style="whiteSpace=wrap;html=1;aspect=fixed;fontSize=10;rounded=1;sketch=1;fillStyle=auto;fillColor=#FF0080;" vertex="1" parent="1">
                    <mxGeometry x="260" y="785" width="55" height="55" as="geometry"/>
                </mxCell>
                <mxCell id="YaQVXfG08iiR8vsxrhCa-7" value="Docker engine" style="text;html=1;strokeColor=none;fillColor=none;align=center;verticalAlign=middle;whiteSpace=wrap;rounded=0;shadow=0;glass=0;sketch=1;" vertex="1" parent="1">
                    <mxGeometry x="175" y="820" width="40" height="20" as="geometry"/>
                </mxCell>
                <mxCell id="YaQVXfG08iiR8vsxrhCa-13" style="edgeStyle=none;shape=flexArrow;html=1;entryX=0;entryY=0.5;entryDx=0;entryDy=0;entryPerimeter=0;" edge="1" parent="1" source="YaQVXfG08iiR8vsxrhCa-8" target="YaQVXfG08iiR8vsxrhCa-12">
                    <mxGeometry relative="1" as="geometry"/>
                </mxCell>
                <mxCell id="YaQVXfG08iiR8vsxrhCa-14" style="edgeStyle=none;shape=flexArrow;html=1;entryX=-0.039;entryY=0.736;entryDx=0;entryDy=0;entryPerimeter=0;" edge="1" parent="1" source="YaQVXfG08iiR8vsxrhCa-8" target="YaQVXfG08iiR8vsxrhCa-16">
                    <mxGeometry relative="1" as="geometry">
                        <mxPoint x="630" y="502.63157894736844" as="targetPoint"/>
                    </mxGeometry>
                </mxCell>
                <mxCell id="YaQVXfG08iiR8vsxrhCa-18" style="edgeStyle=none;shape=flexArrow;html=1;entryX=0;entryY=0.447;entryDx=0;entryDy=0;entryPerimeter=0;" edge="1" parent="1" source="YaQVXfG08iiR8vsxrhCa-8" target="YaQVXfG08iiR8vsxrhCa-17">
                    <mxGeometry relative="1" as="geometry"/>
                </mxCell>
                <mxCell id="YaQVXfG08iiR8vsxrhCa-8" value="Fluentd" style="whiteSpace=wrap;html=1;aspect=fixed;fontSize=10;rounded=1;strokeColor=#00FF00;" vertex="1" parent="1">
                    <mxGeometry x="420" y="600" width="100" height="100" as="geometry"/>
                </mxCell>
                <mxCell id="YaQVXfG08iiR8vsxrhCa-12" value="Elasticsearch" style="shape=cylinder3;whiteSpace=wrap;html=1;boundedLbl=1;backgroundOutline=1;size=15;rounded=1;shadow=0;glass=0;sketch=1;gradientDirection=south;fillColor=none;" vertex="1" parent="1">
                    <mxGeometry x="620" y="594.06" width="90" height="111.88" as="geometry"/>
                </mxCell>
                <mxCell id="YaQVXfG08iiR8vsxrhCa-16" value="Apache&amp;nbsp;&lt;br&gt;Kafka" style="shape=cylinder3;whiteSpace=wrap;html=1;boundedLbl=1;backgroundOutline=1;size=15;rounded=1;shadow=0;glass=0;sketch=1;gradientDirection=south;fillColor=none;" vertex="1" parent="1">
                    <mxGeometry x="620" y="437.99999999999994" width="90" height="111.88" as="geometry"/>
                </mxCell>
                <mxCell id="YaQVXfG08iiR8vsxrhCa-17" value="Redis" style="shape=cylinder3;whiteSpace=wrap;html=1;boundedLbl=1;backgroundOutline=1;size=15;rounded=1;shadow=0;glass=0;sketch=1;gradientDirection=south;fillColor=none;" vertex="1" parent="1">
                    <mxGeometry x="620" y="750" width="90" height="111.88" as="geometry"/>
                </mxCell>
            </root>
        </mxGraphModel>
    </diagram>
</mxfile>